<?xml version="1.0" encoding="utf-8"?>
<!-- Generator: Adobe Illustrator 15.1.0, SVG Export Plug-In . SVG Version: 6.00 Build 0)  -->
<!DOCTYPE svg PUBLIC "-//W3C//DTD SVG 1.1//EN" "http://www.w3.org/Graphics/SVG/1.1/DTD/svg11.dtd">
<svg version="1.1" id="Layer_1" xmlns="http://www.w3.org/2000/svg" xmlns:xlink="http://www.w3.org/1999/xlink" x="0px" y="0px"
	viewBox="0 0 612 792" enable-background="new 0 0 612 792" xml:space="preserve">
<path fill="#9E2B25" fill-rule="evenodd" clip-rule="evenodd" stroke="#000000" stroke-width="2.9999" stroke-linecap="round" stroke-linejoin="round" stroke-miterlimit="22.9256" d="
	M300.078,487.679c-3.801,1.425-8.447,4.276-15.89,9.661c-7.444,5.385-17.686,13.303-27.083,18.635s-17.95,8.078-27.558,10.242
	s-20.272,3.748-28.877,5.015c-8.605,1.268-15.151,2.218-20.219,3.326c-5.068,1.109-8.658,2.376-14.94,5.016
	s-15.257,6.651-21.592,9.186s-10.031,3.59-9.925,2.692c0.106-0.897,4.013-3.748,10.559-8.183
	c6.546-4.435,15.731-10.453,23.544-17.58c7.813-7.127,14.254-15.362,21.275-22.173c7.021-6.81,14.624-12.194,23.018-16.365
	s17.58-7.127,25.182-8.869s13.621-2.27,15.837-3.325c2.217-1.057,0.633-2.64-3.326-3.537c-3.959-0.897-10.294-1.109-18.847-1.109
	s-19.322,0.212-34.051-4.593c-14.729-4.804-33.417-14.623-45.876-22.384c-12.458-7.76-18.688-13.462-25.92-18.583
	s-15.468-9.661-26.396-13.885c-10.928-4.223-24.548-8.13-36.057-13.092c-11.509-4.962-20.906-10.981-24.548-15.416
	c-3.643-4.434-1.531-7.285,2.217-7.549c3.748-0.264,9.133,2.059,19.269,5.596s25.023,8.289,39.7,10.453
	c14.676,2.165,29.141,1.742,42.339,1.531c13.198-0.211,25.129-0.211,35.054,0.66s17.844,2.613,24.337,4.91
	c6.493,2.296,11.562,5.147,16.418,8.79s9.502,8.077,13.25,10.61c3.749,2.534,6.599,3.168,8.5,1.689
	c1.9-1.478,2.851-5.067,0.844-7.654c-2.006-2.587-6.968-4.171-12.934-6.651c-5.965-2.481-12.934-5.86-20.642-12.143
	c-7.708-6.282-16.154-15.468-24.284-29.299s-15.943-32.309-22.542-50.522c-6.599-18.213-11.984-36.163-18.266-52.739
	s-13.462-31.781-19.744-43.712c-6.282-11.931-11.667-20.589-13.462-26.554c-1.794-5.965,0-9.239,2.27-10.136
	s5.016,0.581,12.037,9.502c7.021,8.922,18.318,25.288,28.93,38.274c10.611,12.987,20.536,22.595,32.731,32.098
	c12.195,9.502,26.66,18.899,38.274,28.085c11.614,9.186,20.378,18.16,26.502,26.607c6.124,8.446,9.608,16.365,12.564,24.601
	c2.957,8.236,5.385,16.789,7.286,23.705c1.9,6.916,3.272,12.194,5.543,14.676c2.27,2.481,5.437,2.165,7.232,0.475
	c1.794-1.689,2.217-4.751-0.528-12.723c-2.745-7.971-8.658-20.853-12.617-31.569c-3.959-10.717-5.965-19.269-6.493-30.355
	c-0.528-11.086,0.422-24.707,4.012-40.703c3.59-15.996,9.819-34.368,15.045-49.15c5.227-14.781,9.45-25.974,12.09-36.849
	c2.639-10.875,3.695-21.434,4.223-31.992c0.528-10.559,0.528-21.117,0.95-29.352c1.254-24.449,14.758-24.449,16.012,0
	c0.422,8.235,0.422,18.793,0.95,29.352c0.528,10.558,1.584,21.117,4.223,31.992c2.641,10.875,6.863,22.067,12.09,36.849
	c5.227,14.782,11.456,33.154,15.046,49.15c3.589,15.996,4.539,29.616,4.012,40.703c-0.528,11.086-2.534,19.638-6.493,30.355
	c-3.96,10.716-9.873,23.598-12.618,31.569c-2.745,7.972-2.322,11.034-0.527,12.723c1.795,1.689,4.962,2.006,7.232-0.475
	s3.643-7.76,5.543-14.676c1.9-6.916,4.329-15.469,7.285-23.705c2.956-8.235,6.44-16.154,12.564-24.601
	c6.124-8.447,14.888-17.421,26.502-26.607c11.614-9.186,26.079-18.583,38.274-28.085c12.194-9.503,22.12-19.111,32.73-32.098
	c10.611-12.987,21.909-29.353,28.93-38.274c7.021-8.922,9.768-10.4,12.037-9.502c2.271,0.897,4.064,4.171,2.27,10.136
	s-7.18,14.624-13.462,26.554c-6.282,11.931-13.462,27.135-19.744,43.712s-11.667,34.526-18.266,52.739
	c-6.6,18.213-14.413,36.69-22.543,50.522s-16.576,23.017-24.284,29.299c-7.707,6.283-14.676,9.662-20.642,12.143
	c-5.966,2.48-10.928,4.064-12.934,6.651c-2.007,2.587-1.057,6.177,0.844,7.654c1.901,1.479,4.752,0.845,8.5-1.689
	c3.748-2.533,8.394-6.968,13.251-10.61c4.856-3.643,9.925-6.494,16.418-8.79c6.494-2.296,14.413-4.039,24.337-4.91
	c9.926-0.871,21.856-0.871,35.055-0.66c13.197,0.211,27.663,0.634,42.339-1.531c14.676-2.164,29.563-6.916,39.699-10.453
	c10.137-3.537,15.521-5.86,19.27-5.596c3.748,0.264,5.86,3.115,2.217,7.549c-3.643,4.435-13.039,10.453-24.548,15.416
	c-11.509,4.962-25.129,8.869-36.057,13.092c-10.929,4.224-19.164,8.764-26.396,13.885s-13.461,10.823-25.92,18.583
	c-12.459,7.761-31.147,17.58-45.876,22.384c-14.729,4.805-25.499,4.593-34.051,4.593s-14.888,0.212-18.847,1.109
	c-3.96,0.897-5.543,2.48-3.326,3.537c2.217,1.056,8.235,1.583,15.838,3.325c7.602,1.742,16.787,4.698,25.182,8.869
	c8.394,4.171,15.996,9.556,23.017,16.365c7.021,6.811,13.463,15.046,21.276,22.173c7.813,7.127,16.998,13.146,23.544,17.58
	c6.547,4.435,10.453,7.285,10.56,8.183c0.105,0.897-3.59-0.158-9.926-2.692c-6.335-2.534-15.31-6.546-21.591-9.186
	c-6.283-2.64-9.873-3.906-14.94-5.016c-5.068-1.108-11.615-2.059-20.22-3.326c-8.605-1.267-19.27-2.851-28.877-5.015
	c-9.608-2.164-18.161-4.91-27.558-10.242c-9.397-5.332-19.639-13.25-27.083-18.635c-7.443-5.385-12.089-8.236-15.89-9.661
	c-2.361-0.886-3.754-1.502-4.767-1.851c0.381,9.831,0.253,23.662-0.52,43.819c-1.265,32.995-4.258,82.937-5.835,113.608
	c-1.577,30.672-1.738,42.075-2.986,47.565c-1.248,5.49-3.583,5.068-7.963,5.332c-4.379,0.265-10.802,1.215-10.482-4.804
	s7.384-19.005,12.178-47.936c4.794-28.93,7.319-73.803,8.467-104.687c0.959-25.807,0.957-41.844,0.486-51.594
	C301.069,487.302,300.597,487.483,300.078,487.679z"/>
</svg>
